<svg xmlns="http://www.w3.org/2000/svg" viewBox="0 0 512 415.84"><defs><style>.cls-1{fill:#fff;}</style></defs><title>icon-Asset 1twitter-icon-white</title><g id="Layer_2" data-name="Layer 2"><g id="Layer_1-2" data-name="Layer 1"><path class="cls-1" d="M459.37,103.63c.33,4.55.33,9.1.33,13.65,0,138.72-105.58,298.56-298.56,298.56A296.53,296.53,0,0,1,0,368.73,217.08,217.08,0,0,0,25.34,370,210.15,210.15,0,0,0,155.61,325.2,105.12,105.12,0,0,1,57.5,252.43,132.33,132.33,0,0,0,77.32,254a111,111,0,0,0,27.61-3.57,105,105,0,0,1-84.14-103v-1.3a105.68,105.68,0,0,0,47.43,13.32A105.09,105.09,0,0,1,35.74,19.17,298.27,298.27,0,0,0,252.1,129a118.46,118.46,0,0,1-2.6-24,105,105,0,0,1,181.6-71.8A206.6,206.6,0,0,0,497.7,7.8a104.65,104.65,0,0,1-46.13,57.83A210.36,210.36,0,0,0,512,49.38a225.57,225.57,0,0,1-52.63,54.25Z"/></g></g></svg>